<?xml version="1.0" standalone="no"?>
<!DOCTYPE svg PUBLIC "-//W3C//DTD SVG 20010904//EN"
 "http://www.w3.org/TR/2001/REC-SVG-20010904/DTD/svg10.dtd">
<svg version="1.0" xmlns="http://www.w3.org/2000/svg"
 width="700.000000pt" height="700.000000pt" viewBox="0 0 700.000000 700.000000"
 preserveAspectRatio="xMidYMid meet">
<metadata>
Created by potrace 1.11, written by Peter Selinger 2001-2013
</metadata>
<g transform="translate(0.000000,700.000000) scale(0.100000,-0.100000)"
fill="#000000" stroke="none">
<path d="M1136 6985 c-222 -38 -406 -112 -577 -234 -278 -199 -462 -486 -535
-836 -18 -87 -19 -177 -19 -2405 0 -1273 4 -2337 8 -2365 62 -373 252 -686
544 -894 155 -111 367 -201 529 -227 21 -3 59 -10 84 -15 55 -10 4652 -7 4695
4 17 4 55 12 85 18 368 72 723 346 902 696 45 87 101 238 114 304 33 181 33
164 31 2499 -1 1262 -5 2306 -9 2320 -4 14 -9 41 -12 60 -38 256 -191 534
-406 736 -168 158 -424 288 -650 330 -19 3 -48 9 -65 12 -16 3 -1067 7 -2335
8 -1876 2 -2320 0 -2384 -11z"/>
</g>
</svg>
