<?xml version="1.0" encoding="UTF-8" standalone="no"?>
<!-- Created with Inkscape (http://www.inkscape.org/) -->

<svg
   xmlns:osb="http://www.openswatchbook.org/uri/2009/osb"
   xmlns:dc="http://purl.org/dc/elements/1.1/"
   xmlns:cc="http://creativecommons.org/ns#"
   xmlns:rdf="http://www.w3.org/1999/02/22-rdf-syntax-ns#"
   xmlns:svg="http://www.w3.org/2000/svg"
   xmlns="http://www.w3.org/2000/svg"
   xmlns:xlink="http://www.w3.org/1999/xlink"
   xmlns:sodipodi="http://sodipodi.sourceforge.net/DTD/sodipodi-0.dtd"
   xmlns:inkscape="http://www.inkscape.org/namespaces/inkscape"
   width="975"
   height="256"
   viewBox="0 0 975 256"
   id="svg2"
   version="1.1"
   inkscape:version="0.91 r13725"
   sodipodi:docname="title.svg">
  <defs
     id="defs4">
    <linearGradient
       inkscape:collect="always"
       id="linearGradient6733">
      <stop
         style="stop-color:#1e50a2;stop-opacity:1;"
         offset="0"
         id="stop6735" />
      <stop
         style="stop-color:#1e50a2;stop-opacity:0;"
         offset="1"
         id="stop6737" />
    </linearGradient>
    <linearGradient
       id="linearGradient6451"
       osb:paint="solid">
      <stop
         style="stop-color:#1e50a2;stop-opacity:1;"
         offset="0"
         id="stop6453" />
    </linearGradient>
    <linearGradient
       inkscape:collect="always"
       xlink:href="#linearGradient6733"
       id="linearGradient6739"
       x1="525"
       y1="1114.9685"
       x2="537.49994"
       y2="906.63507"
       gradientUnits="userSpaceOnUse" />
  </defs>
  <sodipodi:namedview
     id="base"
     pagecolor="#ffffff"
     bordercolor="#666666"
     borderopacity="1.0"
     inkscape:pageopacity="0.0"
     inkscape:pageshadow="2"
     inkscape:zoom="0.22"
     inkscape:cx="442.09334"
     inkscape:cy="50.730142"
     inkscape:document-units="px"
     inkscape:current-layer="layer1"
     showgrid="false"
     units="px"
     inkscape:window-width="1276"
     inkscape:window-height="756"
     inkscape:window-x="4"
     inkscape:window-y="0"
     inkscape:window-maximized="1" />
  <metadata
     id="metadata7">
    <rdf:RDF>
      <cc:Work
         rdf:about="">
        <dc:format>image/svg+xml</dc:format>
        <dc:type
           rdf:resource="http://purl.org/dc/dcmitype/StillImage" />
        <dc:title></dc:title>
      </cc:Work>
    </rdf:RDF>
  </metadata>
  <g
     inkscape:label="Layer 1"
     inkscape:groupmode="layer"
     id="layer1"
     transform="translate(0,-796.36214)">
    <path
       inkscape:connector-curvature="0"
       id="rect4974"
       d="M 26.291015,796.36213 C 11.726105,796.36213 5e-6,808.08629 5e-6,822.6512 l 0,162.71289 c 11.48398,-5.43815 22.86913,-10.79884 33.84961,-15.83789 13.23968,-6.07583 26.11751,-11.86607 38.646478,-17.37891 12.52897,-5.51284 24.70925,-10.7481 36.550777,-15.7168 11.84153,-4.96869 23.34411,-9.66989 34.52148,-14.11328 11.17738,-4.44338 22.02992,-8.62949 32.56641,-12.5664 10.53649,-3.93691 20.7569,-7.62495 30.67578,-11.07422 9.91888,-3.44928 19.53483,-6.66015 28.85938,-9.64063 9.32455,-2.98047 18.35783,-5.7312 27.11134,-8.26172 8.75349,-2.53051 17.22787,-4.84006 25.43359,-6.93945 8.20571,-2.09939 16.14299,-3.98868 23.82422,-5.67578 7.68121,-1.6871 15.10711,-3.17315 22.28711,-4.4668 7.18,-1.29365 14.11435,-2.39541 20.8164,-3.31445 6.70206,-0.91904 13.17059,-1.65549 19.41797,-2.21875 6.24739,-0.56327 12.27385,-0.95336 18.08984,-1.17969 5.81599,-0.22633 11.4222,-0.28904 16.83007,-0.19726 5.40789,0.0918 10.61759,0.33943 15.64064,0.73046 5.02303,0.39104 9.86,0.9262 14.52148,1.59766 4.66149,0.67146 9.14751,1.47906 13.47071,2.41211 4.32319,0.93305 8.48203,1.99217 12.49023,3.16797 4.00819,1.1758 7.86556,2.46748 11.58202,3.86719 3.71646,1.39971 7.29223,2.90693 10.74025,4.51172 3.44801,1.60478 6.76787,3.30663 9.9707,5.09765 3.20283,1.79103 6.2886,3.67048 9.26953,5.62891 2.98093,1.95842 5.85635,3.99653 8.63867,6.10351 2.78232,2.10699 5.47115,4.28282 8.07812,6.51954 2.60697,2.23671 5.13299,4.5352 7.58789,6.88281 2.45491,2.3476 4.83991,4.74589 7.16603,7.18554 4.65221,4.87931 9.06898,9.92411 13.3457,15.0586 4.27671,5.13449 8.41256,10.35868 12.5,15.59765 4.08744,5.23897 8.12657,10.49085 12.21094,15.6836 4.08436,5.19275 8.2149,10.32643 12.48242,15.32226 4.26751,4.99584 8.67171,9.85569 13.30859,14.50391 2.31843,2.32411 4.69493,4.59378 7.14063,6.80273 2.44569,2.20895 4.96237,4.35669 7.55858,6.43164 2.59624,2.07498 5.27294,4.07788 8.04298,5.99998 2.77004,1.9221 5.63249,3.7633 8.59961,5.5137 2.96712,1.7504 6.03908,3.4108 9.22655,4.9707 3.18749,1.5599 6.49076,3.0186 9.92189,4.3691 3.43112,1.3506 6.98944,2.5925 10.6875,3.7149 3.69804,1.1224 7.53519,2.1266 11.52343,3.0019 3.98825,0.8754 8.12798,1.6229 12.42969,2.2325 4.30171,0.6095 8.76584,1.0814 13.4043,1.4062 4.63846,0.3248 9.45073,0.5022 14.44922,0.5235 4.99848,0.021 10.18266,-0.115 15.56445,-0.4161 5.38179,-0.301 10.96163,-0.7678 16.75,-1.4101 5.78837,-0.6423 11.78568,-1.4586 18.00391,-2.461 6.21822,-1.0023 12.65676,-2.191 19.32812,-3.5722 6.67136,-1.3812 13.57489,-2.9555 20.72266,-4.7344 7.14777,-1.7789 14.54004,-3.7615 22.1875,-5.957 7.64745,-2.1955 15.55028,-4.6035 23.7207,-7.2344 8.17042,-2.6309 16.60951,-5.4852 25.32617,-8.57032 8.71666,-3.08513 17.71187,-6.40274 26.99805,-9.96094 9.28618,-3.5582 18.86321,-7.35614 28.74219,-11.40625 9.87897,-4.0501 20.05963,-8.35126 30.55468,-12.91211 3.76367,-1.63558 7.78789,-3.48654 11.63282,-5.18945 l 0,-135.14453 c 0,-14.56491 -11.72611,-26.28907 -26.29102,-26.28907 l -922.417975,0 z"
       style="font-style:normal;font-variant:normal;font-weight:900;font-stretch:normal;font-size:medium;line-height:125%;font-family:'Arial Black';-inkscape-font-specification:'Arial Black, Heavy';text-align:start;letter-spacing:0px;word-spacing:0px;writing-mode:lr-tb;text-anchor:start;fill:#1e50a2;fill-opacity:1;fill-rule:nonzero;stroke:#000000;stroke-width:0;stroke-linecap:round;stroke-linejoin:miter;stroke-miterlimit:4;stroke-dasharray:none;stroke-opacity:1" />
    <path
       inkscape:connector-curvature="0"
       id="path4981"
       d="m 975,957.79573 c -3.84493,1.70291 -7.86915,3.55387 -11.63282,5.18945 -10.49505,4.56085 -20.67571,8.86201 -30.55468,12.91211 -9.87897,4.05011 -19.45601,7.84805 -28.74219,11.40625 -9.28618,3.5582 -18.28139,6.87581 -26.99805,9.96094 -8.71666,3.08512 -17.15575,5.93942 -25.32617,8.57032 -8.17042,2.6309 -16.07325,5.0389 -23.7207,7.2344 -7.64746,2.1955 -15.03973,4.1781 -22.1875,5.957 -7.14777,1.7789 -14.0513,3.3532 -20.72266,4.7344 -6.67136,1.3812 -13.1099,2.5699 -19.32812,3.5722 -6.21823,1.0024 -12.21554,1.8187 -18.00391,2.461 -5.78837,0.6423 -11.36821,1.1091 -16.75,1.4101 -5.38179,0.3011 -10.56597,0.4373 -15.56445,0.4161 -4.99849,-0.021 -9.81076,-0.1987 -14.44922,-0.5235 -4.63846,-0.3248 -9.10259,-0.7967 -13.4043,-1.4062 -4.30171,-0.6096 -8.44144,-1.3571 -12.42969,-2.2325 -3.98824,-0.8753 -7.82539,-1.8795 -11.52343,-3.0019 -3.69805,-1.1224 -7.25638,-2.3643 -10.6875,-3.7149 -3.43113,-1.3505 -6.73439,-2.8092 -9.92188,-4.3691 -3.18748,-1.5599 -6.25944,-3.2203 -9.22656,-4.9707 -2.96712,-1.7504 -5.82957,-3.5916 -8.59961,-5.5137 -2.77004,-1.9221 -5.44674,-3.925 -8.04297,-5.99998 -2.59622,-2.07495 -5.1129,-4.22269 -7.55859,-6.43164 -2.4457,-2.20895 -4.82219,-4.47862 -7.14062,-6.80273 -4.63688,-4.64822 -9.04109,-9.50807 -13.3086,-14.50391 -4.26751,-4.99583 -8.39805,-10.12951 -12.48242,-15.32226 -4.08437,-5.19275 -8.1235,-10.44463 -12.21094,-15.6836 -4.08744,-5.23897 -8.22328,-10.46316 -12.5,-15.59765 -4.27672,-5.13449 -8.69348,-10.17929 -13.3457,-15.0586 -2.32611,-2.43965 -4.71112,-4.83794 -7.16602,-7.18554 -2.4549,-2.34761 -4.98092,-4.6461 -7.58789,-6.88281 -2.60697,-2.23672 -5.29581,-4.41255 -8.07813,-6.51954 -2.78231,-2.10698 -5.65773,-4.14509 -8.63867,-6.10351 -2.98093,-1.95843 -6.0667,-3.83788 -9.26953,-5.62891 -3.20283,-1.79102 -6.52269,-3.49287 -9.9707,-5.09765 -3.44801,-1.60479 -7.02378,-3.11201 -10.74024,-4.51172 -3.71646,-1.39971 -7.57384,-2.69139 -11.58203,-3.86719 -4.00819,-1.1758 -8.16704,-2.23492 -12.49023,-3.16797 -4.3232,-0.93305 -8.80922,-1.74065 -13.47071,-2.41211 -4.66148,-0.67146 -9.49844,-1.20662 -14.52148,-1.59766 -5.02304,-0.39103 -10.23275,-0.63869 -15.64063,-0.73046 -5.40787,-0.0918 -11.01408,-0.0291 -16.83007,0.19726 -5.816,0.22633 -11.84246,0.61642 -18.08985,1.17969 -6.24738,0.56326 -12.71591,1.29971 -19.41797,2.21875 -6.70205,0.91904 -13.6364,2.0208 -20.8164,3.31445 -7.18,1.29365 -14.60589,2.7797 -22.28711,4.4668 -7.68122,1.6871 -15.6185,3.57639 -23.82422,5.67578 -8.20572,2.09939 -16.6801,4.40894 -25.43359,6.93945 -8.7535,2.53052 -17.78678,5.28125 -27.11133,8.26172 -9.32455,2.98048 -18.9405,6.19135 -28.85938,9.64063 -9.91888,3.44927 -20.13929,7.13731 -30.67578,11.07422 -10.53649,3.93691 -21.38903,8.12302 -32.56641,12.5664 -11.17737,4.44339 -22.67995,9.14459 -34.52148,14.11328 -11.841527,4.9687 -24.021807,10.20396 -36.550777,15.7168 -12.528968,5.51284 -25.406798,11.30308 -38.646478,17.37891 -10.98048,5.03905 -22.36563,10.39974 -33.8496100000001,15.83789 l 0,40.70701 c 0,14.5649 11.7261000000001,26.291 26.2910100000001,26.291 l 922.417965,0 c 14.56491,0 26.29102,-11.7261 26.29102,-26.291 l 0,-68.27537 z"
       style="font-style:normal;font-variant:normal;font-weight:900;font-stretch:normal;font-size:medium;line-height:125%;font-family:'Arial Black';-inkscape-font-specification:'Arial Black, Heavy';text-align:start;letter-spacing:0px;word-spacing:0px;writing-mode:lr-tb;text-anchor:start;fill:url(#linearGradient6739);fill-opacity:1;fill-rule:nonzero;stroke:#000000;stroke-width:0;stroke-linecap:round;stroke-linejoin:miter;stroke-miterlimit:4;stroke-dasharray:none;stroke-opacity:1" />
    <g
       transform="translate(-2,-26)"
       id="g6555"
       style="font-style:normal;font-variant:normal;font-weight:900;font-stretch:normal;font-size:180px;line-height:125%;font-family:'Arial Black';-inkscape-font-specification:'Arial Black, Heavy';text-align:start;letter-spacing:0px;word-spacing:0px;writing-mode:lr-tb;text-anchor:start;fill:#1e50a2;fill-opacity:1;stroke:none;stroke-width:1px;stroke-linecap:butt;stroke-linejoin:miter;stroke-opacity:1">
      <path
         style="fill:#1e50a2;fill-opacity:1"
         d="m 63.378906,833.99219 c -16.481017,43.8503 -32.962855,87.70029 -49.443359,131.55078 15.026693,0 30.053385,0 45.080078,0 2.080333,-7.08977 4.160114,-14.1797 6.240234,-21.26953 14.121094,0 28.242188,0 42.363281,0 2.10827,7.08998 4.2202,14.17887 6.32617,21.26953 15.34701,0 30.69401,0 46.04102,0 -16.64352,-44.28269 -33.28638,-88.56563 -49.93164,-132.84766 -15.395836,0 -30.791669,0 -46.187502,0 l -0.352359,0.93587 -0.135923,0.36101 z m 34.673828,78.41992 c -7.660156,0 -15.320312,0 -22.980468,0 3.818359,-12.4974 7.636718,-24.99479 11.455078,-37.49219 3.841797,12.4974 7.683594,24.99479 11.52539,37.49219 z"
         id="path6557"
         inkscape:connector-curvature="0" />
      <path
         style="fill:#1e50a2;fill-opacity:1"
         d="m 155.0293,834.69531 c 0,43.61589 0,87.23177 0,130.84766 12.49544,0 24.99088,0 37.48632,0 0.79424,-2.29075 -1.78076,-12.93994 1.6504,-8.62891 15.96552,17.25866 47.81494,13.01184 59.16404,-7.48126 9.83438,-17.0125 10.83203,-38.53172 4.77736,-57.01483 -5.68407,-16.72674 -23.30407,-28.11614 -40.91015,-26.21875 -7.99674,0.46604 -15.90933,3.33369 -22.04493,8.54297 0,-14.01563 0,-28.03125 0,-42.04688 -13.37435,0 -26.74869,0 -40.12304,0 l 0,1 0,1 z m 55.02343,62.13672 c 11.20536,1.19737 12.71691,14.75496 11.79883,23.76758 0.17972,8.37567 -5.46237,18.67467 -15.20703,16.69336 -11.58945,-2.14909 -12.49886,-16.16224 -11.48047,-25.62109 0.51025,-7.92954 6.25123,-15.57046 14.88867,-14.83985 z"
         id="path6559"
         inkscape:connector-curvature="0" />
      <path
         style="fill:#1e50a2;fill-opacity:1"
         d="m 310.99414,866.10742 c -19.50869,-0.34084 -39.69828,9.46792 -48.51172,27.42774 -10.31413,20.7293 -5.71248,48.87631 13.41602,62.98437 16.45451,12.55193 39.29278,13.49997 58.59179,8.01758 20.0422,-5.82128 34.26156,-25.80675 33.90625,-46.56836 1.16171,-20.0967 -10.90391,-40.55808 -30.12983,-47.51349 -8.64309,-3.40386 -18.0364,-4.48125 -27.27251,-4.34784 z m 2.88477,28.61719 c 12.24452,0.77125 15.54504,14.88429 14.50976,24.98242 0.39418,9.41797 -5.52107,20.85832 -16.46094,19.75195 -11.78786,-0.43442 -15.63617,-13.64159 -14.86998,-23.43543 -0.40251,-10.00027 4.93339,-22.23644 16.82116,-21.29894 z"
         id="path6561"
         inkscape:connector-curvature="0" />
      <path
         style="fill:#1e50a2;fill-opacity:1"
         d="m 417.91406,866.10742 c -19.5086,-0.34077 -39.69832,9.46778 -48.51172,27.42774 -10.31453,20.72925 -5.7123,48.87627 13.41602,62.98437 16.45451,12.55193 39.29278,13.49997 58.5918,8.01758 20.0422,-5.82128 34.26155,-25.80675 33.90625,-46.56836 1.16144,-20.09686 -10.90363,-40.5578 -30.12984,-47.51349 -8.64309,-3.40386 -18.0364,-4.48125 -27.27251,-4.34784 z m 2.88477,28.61719 c 12.08831,0.74162 15.49447,14.55236 14.52638,24.54615 0.36964,9.21076 -4.81176,20.66601 -15.60451,20.20971 -11.49872,0.33416 -16.37903,-12.21847 -15.75147,-21.9257 -0.65012,-10.4245 4.13086,-23.71164 16.8296,-22.83016 z"
         id="path6563"
         inkscape:connector-curvature="0" />
      <path
         style="fill:#1e50a2;fill-opacity:1"
         d="m 470.78906,834.69531 c 0,43.61589 0,87.23177 0,130.84766 13.52084,0 27.04167,0 40.5625,0 0.49722,-8.59716 -0.98131,-18.02414 0.71405,-26.11807 3.94692,-1.8508 9.66626,-14.41616 11.98272,-6.41055 5.47209,10.84291 10.94478,21.68552 16.41651,32.52862 15.01888,0 30.03776,0 45.05664,0 -12.1318,-20.7673 -24.26015,-41.53661 -36.39062,-62.30469 11.9617,-11.67826 23.92238,-23.35759 35.88476,-35.03516 -16.62044,0 -33.24088,10e-6 -49.86132,0 -7.93293,9.18864 -15.86871,18.37482 -23.80274,27.5625 0,-21.02343 0,-42.04687 0,-63.07031 -13.52083,0 -27.04166,0 -40.5625,0 l 0,1 0,1 z"
         id="path6565"
         inkscape:connector-curvature="0" />
    </g>
    <g
       style="font-style:normal;font-variant:normal;font-weight:900;font-stretch:normal;font-size:180px;line-height:125%;font-family:'Arial Black';-inkscape-font-specification:'Arial Black, Heavy';text-align:start;letter-spacing:0px;word-spacing:0px;writing-mode:lr-tb;text-anchor:start;fill:#eaf4fc;fill-opacity:1;stroke:none;stroke-width:1px;stroke-linecap:butt;stroke-linejoin:miter;stroke-opacity:1"
       id="text4768"
       transform="translate(-2,-26)">
      <path
         style="fill:#eaf4fc;fill-opacity:1"
         d="m 103.77148,838.42578 c -4.663843,1.07577 -9.870778,0.0811 -14.406246,-0.40625 -3.953159,0.45027 -8.002623,1.49492 -12.117187,0.41992 -5.844338,-1.14843 -11.729192,2.71739 -12.452131,8.83219 -14.064701,37.42381 -28.130067,74.84737 -42.194354,112.27133 10.639974,0 21.279948,0 31.919922,0 2.080333,-7.08977 4.160115,-14.1797 6.240235,-21.26953 17.110677,0 34.221354,0 51.332031,0 2.1089,7.08979 4.21637,14.18001 6.32617,21.26953 10.9668,0 21.9336,0 32.90039,0 -15.24588,-40.56453 -30.49019,-81.12966 -45.73828,-121.69336 l -0.95291,0.30325 -0.85764,0.27292 z m 2.40235,79.98633 c -13.070965,0 -26.141929,0 -39.212892,0 6.516276,-21.32422 13.032552,-42.64844 19.548828,-63.97266 6.554687,21.32422 13.109375,42.64844 19.664064,63.97266 z"
         id="path4777"
         inkscape:connector-curvature="0" />
      <path
         style="fill:#eaf4fc;fill-opacity:1"
         d="m 161.0293,840.69531 c 0,39.7142 0,79.42839 0,119.14258 8.52104,-1.47197 17.71442,1.83424 25.74414,-2.42969 -0.8426,-5.66375 -1.08235,-12.1634 2.64062,-16.93554 6.85299,16.4691 27.80977,26.89932 44.46094,18.50195 15.25186,-7.01062 21.91693,-24.69304 21.97461,-40.58399 1.2903,-17.02014 -5.35999,-37.13144 -22.41016,-43.91015 -15.07768,-6.22681 -33.8461,-0.0888 -42.73633,13.3418 -3.87667,-1.52879 -0.51637,-7.15696 -1.59386,-10.04491 0.0309,-13.02733 0.0692,-26.05468 0.0411,-39.08205 -9.3737,0 -18.7474,0 -28.12109,0 l 0,1 0,1 z m 48.43945,50.08985 c 12.25522,-0.0858 19.34456,13.64258 18.81641,24.72265 0.20551,11.3163 -3.62123,25.42941 -16.51563,27.85742 -7.32637,1.74856 -14.26928,-3.73651 -19.61523,-7.13281 0.90598,-4.65245 -3.743,-8.26158 -3.11719,-13.08008 -1.63247,-11.48092 1.28998,-27.51656 14.17969,-31.39453 2.01425,-0.65595 4.13239,-0.99658 6.25195,-0.97265 z"
         id="path4779"
         inkscape:connector-curvature="0" />
      <path
         style="fill:#eaf4fc;fill-opacity:1"
         d="m 307.01172,872.06055 c -24.28337,0.2739 -46.75371,22.89822 -44.02344,47.6289 0.79519,21.26132 18.9601,40.19195 40.30469,41.40625 20.304,3.35181 44.52132,-3.66379 54.30859,-23.11523 11.61667,-21.66276 2.49575,-53.39846 -21.51758,-62.02539 -9.22153,-3.62496 -19.28802,-3.95977 -29.07226,-3.89453 z m 6.64453,16.625 c 14.48371,0.50552 22.47283,16.15528 21,29.27539 0.80128,12.68502 -7.75497,28.26937 -22.01367,27.67773 -12.79584,-0.36886 -22.59302,-13.09034 -21.66016,-25.4707 -1.6895,-14.14748 6.05838,-32.26905 22.67383,-31.48242 z"
         id="path4781"
         inkscape:connector-curvature="0" />
      <path
         style="fill:#eaf4fc;fill-opacity:1"
         d="m 414.26953,872.08008 c -24.32702,0.0536 -46.94561,22.61375 -44.37109,47.375 0.68692,21.35208 18.89688,40.49296 40.3633,41.62908 20.38949,3.38637 44.78239,-3.76977 54.42185,-23.43768 11.21229,-21.46865 2.43203,-52.67493 -21.16015,-61.46679 -9.23973,-3.75654 -19.40101,-4.23667 -29.25391,-4.09961 z m 6.25195,16.60351 c 13.84795,0.40285 22.38308,15.2266 20.98438,28.08203 1.263,12.81613 -6.90321,28.97609 -21.35352,28.87696 -13.12619,0.0429 -23.28384,-13.03891 -22.27539,-25.67188 -1.41259,-12.57152 4.61709,-28.95913 18.76367,-31.0957 1.28419,-0.18214 2.58511,-0.24081 3.88086,-0.19141 z"
         id="path4783"
         inkscape:connector-curvature="0" />
      <path
         style="fill:#eaf4fc;fill-opacity:1"
         d="m 476.78906,840.69531 c 0,39.61589 0,79.23177 0,118.84766 9.66276,0 19.32552,0 28.98828,0 -0.13095,-8.99339 -3.3825,-21.1263 5.06055,-27.5 4.53393,-3.98833 8.67368,-8.46547 13.06641,-12.62891 6.75058,13.37634 13.50172,26.7524 20.25195,40.12891 10.30469,0 20.60938,0 30.91406,0 -11.16332,-19.10736 -22.32402,-38.21626 -33.48633,-57.32422 9.99472,-9.75919 19.99035,-19.51744 29.98438,-29.27734 -11.53165,3.49136 -23.89577,-1.39192 -35.18945,3.01757 -10.34055,11.97885 -20.68522,23.95416 -31.02735,35.93164 0,-24.39843 0,-48.79687 0,-73.19531 -9.52083,0 -19.04166,0 -28.5625,0 l 0,1 0,1 z"
         id="path4785"
         inkscape:connector-curvature="0" />
    </g>
    <path
       style="font-style:normal;font-variant:normal;font-weight:900;font-stretch:normal;font-size:medium;line-height:125%;font-family:'Arial Black';-inkscape-font-specification:'Arial Black, Heavy';text-align:start;letter-spacing:0px;word-spacing:0px;writing-mode:lr-tb;text-anchor:start;fill:#1e50a2;fill-opacity:1;stroke:none;stroke-width:1px;stroke-linecap:butt;stroke-linejoin:miter;stroke-opacity:1"
       d="m 570.86523,880.26172 c -18.03727,-0.0516 -38.95911,4.46228 -48.96289,21.06055 -9.83765,15.22761 -5.63188,37.65457 9.8418,47.51757 14.78417,10.5912 33.46367,12.04283 50.12109,18.01758 7.7308,1.97605 11.3074,12.88973 4.17383,17.83789 -10.38382,7.55194 -28.52597,2.89617 -31.1875,-10.6875 -1.02016,-4.73189 -0.83646,-9.96713 -7.31248,-7.46866 -11.98308,0.75057 -23.96614,1.50159 -35.94924,2.25187 0.73775,18.95758 11.68828,39.08608 30.84961,44.59378 18.15791,5.2187 37.91848,5.6028 56.2461,0.9941 20.59615,-5.0444 36.31443,-25.72402 33.79297,-47.09179 -0.97709,-15.28917 -12.67909,-27.74507 -26.6117,-32.91467 -14.12773,-6.24901 -29.70062,-7.84098 -44.15198,-12.73767 -6.38271,-1.91685 -4.80523,-10.93252 1.08204,-12.36719 9.0862,-3.19265 21.73927,0.33463 23.52539,11.03906 -0.47519,7.12388 6.93392,3.74321 11.70141,4.00913 10.23105,-0.5985 20.46199,-1.19905 30.69312,-1.79624 -1.00242,-14.96817 -8.6551,-30.4403 -23.10547,-36.45898 -10.81681,-4.95061 -22.99757,-5.95048 -34.7461,-5.79883 z"
       id="path6639"
       inkscape:connector-curvature="0" />
    <path
       style="font-style:normal;font-variant:normal;font-weight:900;font-stretch:normal;font-size:medium;line-height:125%;font-family:'Arial Black';-inkscape-font-specification:'Arial Black, Heavy';text-align:start;letter-spacing:0px;word-spacing:0px;writing-mode:lr-tb;text-anchor:start;fill:#ffffff;fill-opacity:1;stroke:none;stroke-width:1px;stroke-linecap:butt;stroke-linejoin:miter;stroke-opacity:1"
       d="m 570.94727,886.26172 c -16.52495,-0.15619 -36.73169,3.97347 -45.02344,20.1543 -7.91422,13.97728 -1.2847,33.65771 13.57617,40.26953 15.44128,9.10301 34.56347,8.6524 50.01562,17.50976 8.07378,5.82269 8.73286,19.21157 0.33985,25.02149 -12.87478,10.23171 -35.549,4.48878 -40.25,-11.85547 -1.15777,-1.94751 -0.22201,-6.23198 -3.76563,-4.65821 -9.21773,0.61496 -18.40925,0.81667 -27.5957,1.87696 2.13264,17.00561 15.33815,33.11092 33.048,34.80422 19.62591,3.5554 41.9079,3.8811 59.43833,-7.0952 16.61854,-11.48454 22.31533,-38.50133 6.94336,-53.3223 -13.16402,-12.25358 -31.95372,-14.55997 -48.70313,-18.875 -7.74901,-1.00962 -18.15439,-5.55189 -17.51953,-14.83008 0.93398,-9.87863 12.11003,-14.4126 20.89649,-13.03516 9.34547,0.50333 18.09975,7.44087 19.91796,16.60547 9.79713,-1.42299 19.78055,-0.84116 29.59571,-2.04687 -2.14588,-14.82933 -14.71316,-26.81378 -29.50826,-28.75813 -7.02065,-1.53079 -14.24084,-1.85195 -21.4058,-1.76531 z"
       id="path4966"
       inkscape:connector-curvature="0" />
    <path
       style="font-style:normal;font-variant:normal;font-weight:900;font-stretch:normal;font-size:medium;line-height:125%;font-family:'Arial Black';-inkscape-font-specification:'Arial Black, Heavy';text-align:start;letter-spacing:0px;word-spacing:0px;writing-mode:lr-tb;text-anchor:start;fill:#1e50a2;fill-opacity:1;stroke:none;stroke-width:1px;stroke-linecap:butt;stroke-linejoin:miter;stroke-opacity:1"
       d="m 638.60352,884.4375 c 0,43.61589 0,87.23177 0,130.8477 13.25716,0 26.51432,0 39.77148,0 0.50543,-18.69231 -1.00919,-37.67139 0.74414,-56.13872 0.0243,-9.85783 13.98459,-15.51217 20.07227,-7.50781 4.34382,9.74855 1.19595,21.00273 2.16601,31.34375 0,10.76758 0,21.53518 0,32.30278 13.31576,0 26.63151,0 39.94727,0 -0.37102,-23.04048 0.68914,-46.13819 -0.41992,-69.15043 -0.76931,-13.01268 -9.22361,-25.9303 -22.39258,-28.98633 -13.9287,-3.51715 -29.75275,-0.24773 -40.11719,10.03125 0,-14.91406 0,-29.82813 0,-44.74219 -13.25716,0 -26.51432,0 -39.77148,0 l 0,1 0,1 z"
       id="path6641"
       inkscape:connector-curvature="0" />
    <path
       style="font-style:normal;font-variant:normal;font-weight:900;font-stretch:normal;font-size:medium;line-height:125%;font-family:'Arial Black';-inkscape-font-specification:'Arial Black, Heavy';text-align:start;letter-spacing:0px;word-spacing:0px;writing-mode:lr-tb;text-anchor:start;fill:#ffffff;fill-opacity:1;stroke:none;stroke-width:1px;stroke-linecap:butt;stroke-linejoin:miter;stroke-opacity:1"
       d="m 644.60352,1009.2852 c 9.27408,0 18.54817,0 27.82226,0 0.67784,-18.28977 -1.81245,-36.88572 1.56836,-54.98051 3.28051,-11.8983 20.5331,-17.15274 28.94531,-7.50977 7.56763,9.75211 3.24542,23.03864 4.41797,34.24414 0,9.41537 0,18.83073 0,28.24614 9.30599,0 18.61198,0 27.91797,0 -0.53328,-22.60027 1.32958,-45.36226 -1.08789,-67.80668 -2.34309,-11.7729 -13.64153,-20.30585 -25.55859,-19.73633 -12.4048,-0.59067 -24.18426,5.92106 -31.74024,15.46289 -3.67596,2.35118 -5.45091,-2.96509 -4.66797,-5.81055 0.58021,-14.29459 -0.0955,-28.63555 0.1543,-42.95703 -9.25716,0 -18.51432,0 -27.77148,0 0,40.28255 0,80.5651 0,120.8477 z"
       id="path4968"
       inkscape:connector-curvature="0" />
    <path
       style="font-style:normal;font-variant:normal;font-weight:900;font-stretch:normal;font-size:medium;line-height:125%;font-family:'Arial Black';-inkscape-font-specification:'Arial Black, Heavy';text-align:start;letter-spacing:0px;word-spacing:0px;writing-mode:lr-tb;text-anchor:start;fill:#1e50a2;fill-opacity:1;stroke:none;stroke-width:1px;stroke-linecap:butt;stroke-linejoin:miter;stroke-opacity:1"
       d="m 746.9668,884.4375 c 0,8.7819 0,17.5638 0,26.3457 13.25716,0 26.51432,0 39.77148,0 0,-9.44856 0,-18.89713 0,-28.3457 -13.25716,0 -26.51432,0 -39.77148,0 l 0,1 0,1 z m 0,35.50781 c 0,31.77995 0,63.5599 0,95.33989 13.25716,0 26.51432,0 39.77148,0 0,-32.44666 0,-64.89327 0,-97.33989 -13.25716,0 -26.51432,0 -39.77148,0 l 0,1 0,1 z"
       id="path6643"
       inkscape:connector-curvature="0" />
    <path
       style="font-style:normal;font-variant:normal;font-weight:900;font-stretch:normal;font-size:medium;line-height:125%;font-family:'Arial Black';-inkscape-font-specification:'Arial Black, Heavy';text-align:start;letter-spacing:0px;word-spacing:0px;writing-mode:lr-tb;text-anchor:start;fill:#ffffff;fill-opacity:1;stroke:none;stroke-width:1px;stroke-linecap:butt;stroke-linejoin:miter;stroke-opacity:1"
       d="m 752.9668,904.7832 c 9.25716,0 18.51432,0 27.77148,0 -1.27128,-4.84395 2.59132,-14.82179 -2,-16.3457 -8.59049,0 -17.18099,0 -25.77148,0 0,5.44857 0,10.89714 0,16.3457 z m 0,104.502 c 9.25716,0 18.51432,0 27.77148,0 0,-28.44666 0,-56.89327 0,-85.33989 -9.25716,0 -18.51432,0 -27.77148,0 0,28.44662 0,56.89323 0,85.33989 z"
       id="path4970"
       inkscape:connector-curvature="0" />
    <path
       style="font-style:normal;font-variant:normal;font-weight:900;font-stretch:normal;font-size:medium;line-height:125%;font-family:'Arial Black';-inkscape-font-specification:'Arial Black, Heavy';text-align:start;letter-spacing:0px;word-spacing:0px;writing-mode:lr-tb;text-anchor:start;fill:#1e50a2;fill-opacity:1;stroke:none;stroke-width:1px;stroke-linecap:butt;stroke-linejoin:miter;stroke-opacity:1"
       d="m 856.73438,915.85352 c -10.21414,0.0948 -20.29899,4.5395 -26.84766,12.46093 0.8674,-6.99045 0.55967,-12.80576 -8,-10.36914 -9.82878,0 -19.65755,0 -29.48633,0 0,44.28255 0,88.56509 0,132.84769 13.37435,0 26.7487,0 40.12305,0 0.15735,-13.7659 -0.31311,-28.8707 0.23242,-41.8086 17.18928,14.094 46.08832,10.1773 58.11719,-8.8282 9.69228,-15.39917 10.00214,-35.15789 5.66724,-52.36508 -4.02071,-14.95792 -15.35169,-29.47132 -31.59107,-31.43174 -2.71491,-0.42006 -5.46936,-0.57457 -8.21484,-0.50586 z m -9.80274,30.28125 c 11.51012,1.11543 13.25798,14.93565 12.29688,24.20117 0.19225,8.18389 -5.34765,18.16548 -14.8086,16.17578 -11.95687,-2.03086 -13.20268,-16.47271 -11.73633,-26.21094 0.62083,-7.46779 6.01862,-14.84419 14.24805,-14.16601 z"
       id="path6645"
       inkscape:connector-curvature="0" />
    <path
       style="font-style:normal;font-variant:normal;font-weight:900;font-stretch:normal;font-size:medium;line-height:125%;font-family:'Arial Black';-inkscape-font-specification:'Arial Black, Heavy';text-align:start;letter-spacing:0px;word-spacing:0px;writing-mode:lr-tb;text-anchor:start;fill:#eaf4fc;fill-opacity:1;stroke:none;stroke-width:1px;stroke-linecap:butt;stroke-linejoin:miter;stroke-opacity:1"
       d="m 856.82422,921.85352 c -12.27829,-0.47148 -22.00417,8.53055 -28.7207,17.7871 -4.11485,2.44744 -5.09024,-3.87666 -4.3418,-6.65624 -0.59895,-2.62111 1.88112,-7.43733 -0.80274,-9.19141 -7.521,0.0165 -15.03902,0.85847 -22.59179,-0.10547 -4.64254,-0.67462 -0.68389,5.20422 -1.9668,7.25781 0,37.94922 0,75.89839 0,113.84769 9.37435,0 18.7487,0 28.12305,0 0,-17.0209 0,-34.0417 0,-51.06253 8.28131,13.20113 24.84128,20.86943 40.14062,16.67573 17.07606,-3.8635 26.62946,-22.1516 26.39649,-38.65815 1.11496,-17.85406 -4.53664,-39.62131 -22.24805,-47.61914 -4.42685,-1.76582 -9.24199,-2.41102 -13.98828,-2.27539 z m -10.58984,18.26171 c 12.58714,-0.26391 20.11092,13.67015 19.15039,24.98438 0.66506,10.46507 -2.69637,24.03259 -14.19141,27.02344 -12.3003,3.57048 -24.89774,-7.86592 -24.65234,-20.22852 -1.64861,-11.80836 1.53514,-27.66161 14.74414,-31.15234 1.61359,-0.42239 3.28177,-0.62773 4.94922,-0.62696 z"
       id="path4972"
       inkscape:connector-curvature="0" />
  </g>
</svg>
